<svg width="40" height="40" viewBox="0 0 40 40" fill="none" xmlns="http://www.w3.org/2000/svg">
<path fill-rule="evenodd" clip-rule="evenodd" d="M14.75 16.25C14.75 15.4216 15.4216 14.75 16.25 14.75C17.0784 14.75 17.75 15.4216 17.75 16.25C17.75 17.0784 17.0784 17.75 16.25 17.75C15.4216 17.75 14.75 17.0784 14.75 16.25ZM16.25 13.25C14.5931 13.25 13.25 14.5931 13.25 16.25C13.25 17.9069 14.5931 19.25 16.25 19.25C17.6479 19.25 18.8225 18.2939 19.1555 17H26.75V15.5H19.1555C18.8225 14.2061 17.6479 13.25 16.25 13.25ZM14 23H20.8445C21.1775 21.7061 22.3521 20.75 23.75 20.75C25.4069 20.75 26.75 22.0931 26.75 23.75C26.75 25.4069 25.4069 26.75 23.75 26.75C22.3521 26.75 21.1775 25.7939 20.8445 24.5H14V23ZM23.75 25.25C22.9216 25.25 22.25 24.5784 22.25 23.75C22.25 22.9216 22.9216 22.25 23.75 22.25C24.5784 22.25 25.25 22.9216 25.25 23.75C25.25 24.5784 24.5784 25.25 23.75 25.25Z" fill="#494656"/>
</svg>
