<svg width="20" height="20" viewBox="0 0 20 20" fill="none" xmlns="http://www.w3.org/2000/svg">
<path fill-rule="evenodd" clip-rule="evenodd" d="M6.43652 16.1942L8.61977 16.7739V16.0158L8.79798 15.8374H10.0456V16.7294V17.3537H8.7089L7.06032 16.6402L6.43652 16.1942Z" fill="#CDBDB2"/>
<path fill-rule="evenodd" clip-rule="evenodd" d="M13.5655 16.1942L11.4268 16.7739V16.0158L11.2486 15.8374H10.001V16.7294V17.3537H11.3377L12.9862 16.6402L13.5655 16.1942Z" fill="#CDBDB2"/>
<path fill-rule="evenodd" clip-rule="evenodd" d="M8.79833 14.5441L8.62012 16.0158L8.84287 15.8374H11.1598L11.4271 16.0158L11.2489 14.5441L10.8925 14.3211L9.1102 14.3657L8.79833 14.5441Z" fill="#393939"/>
<path fill-rule="evenodd" clip-rule="evenodd" d="M7.59473 4.59874L8.66406 7.09623L9.15418 14.3657H10.8919L11.4265 7.09623L12.4068 4.59874H7.59473Z" fill="#F89C35"/>
<path fill-rule="evenodd" clip-rule="evenodd" d="M2.91651 10.0843L1.66895 13.6967L4.78786 13.5183H6.79288V11.9574L6.70375 8.74634L6.25821 9.10313L2.91651 10.0843Z" fill="#F89D35"/>
<path fill-rule="evenodd" clip-rule="evenodd" d="M5.27832 10.4857L8.93188 10.5749L8.53088 12.448L6.79322 12.002L5.27832 10.4857Z" fill="#D87C30"/>
<path fill-rule="evenodd" clip-rule="evenodd" d="M5.27832 10.5302L6.79322 11.9574V13.3845L5.27832 10.5302Z" fill="#EA8D3A"/>
<path fill-rule="evenodd" clip-rule="evenodd" d="M6.79297 12.002L8.57522 12.448L9.15443 14.3657L8.75343 14.5887L6.79297 13.4291V12.002Z" fill="#F89D35"/>
<path fill-rule="evenodd" clip-rule="evenodd" d="M6.79298 13.4291L6.43652 16.1942L8.79798 14.5441L6.79298 13.4291Z" fill="#EB8F35"/>
<path fill-rule="evenodd" clip-rule="evenodd" d="M8.93187 10.5748L9.15466 14.3657L8.48633 12.4257L8.93187 10.5748Z" fill="#EA8E3A"/>
<path fill-rule="evenodd" clip-rule="evenodd" d="M4.74316 13.4737L6.79273 13.4291L6.43627 16.1942L4.74316 13.4737Z" fill="#D87C30"/>
<path fill-rule="evenodd" clip-rule="evenodd" d="M2.64917 17.3983L6.43642 16.1942L4.7433 13.4737L1.66895 13.6967L2.64917 17.3983Z" fill="#EB8F35"/>
<path fill-rule="evenodd" clip-rule="evenodd" d="M8.66455 7.0962L6.74867 8.70174L5.27832 10.4857L8.93188 10.6194L8.66455 7.0962Z" fill="#E8821E"/>
<path fill-rule="evenodd" clip-rule="evenodd" d="M6.43652 16.1942L8.79798 14.5441L8.61977 15.9712V16.7739L7.01577 16.4618L6.43652 16.1942Z" fill="#DFCEC3"/>
<path fill-rule="evenodd" clip-rule="evenodd" d="M13.565 16.1942L11.248 14.5441L11.4263 15.9712V16.7739L13.0303 16.4618L13.565 16.1942Z" fill="#DFCEC3"/>
<path fill-rule="evenodd" clip-rule="evenodd" d="M7.95169 11.3776L8.44177 12.4034L6.7041 11.9574L7.95169 11.3776Z" fill="#393939"/>
<path fill-rule="evenodd" clip-rule="evenodd" d="M2.60449 2.50264L8.66409 7.09623L7.6393 4.59874L2.60449 2.50264Z" fill="#E88F35"/>
<path fill-rule="evenodd" clip-rule="evenodd" d="M2.60474 2.50264L1.80273 4.95553L2.24829 7.6314L1.9364 7.80982L2.38196 8.21119L2.02551 8.52336L2.51563 8.96936L2.20374 9.23694L2.91663 10.1289L6.25833 9.10315C7.89204 7.79494 8.69404 7.12594 8.66433 7.09623C8.63462 7.06648 6.61475 5.5353 2.60474 2.50264Z" fill="#8E5A30"/>
<path fill-rule="evenodd" clip-rule="evenodd" d="M17.0854 10.0843L18.3329 13.6967L15.214 13.5183H13.209V11.9574L13.2981 8.74634L13.7437 9.10313L17.0854 10.0843Z" fill="#F89D35"/>
<path fill-rule="evenodd" clip-rule="evenodd" d="M14.7239 10.4857L11.0703 10.5749L11.4713 12.448L13.209 12.002L14.7239 10.4857Z" fill="#D87C30"/>
<path fill-rule="evenodd" clip-rule="evenodd" d="M14.7239 10.5302L13.209 11.9574V13.3845L14.7239 10.5302Z" fill="#EA8D3A"/>
<path fill-rule="evenodd" clip-rule="evenodd" d="M13.2091 12.002L11.4269 12.448L10.8477 14.3657L11.2487 14.5887L13.2091 13.4291V12.002Z" fill="#F89D35"/>
<path fill-rule="evenodd" clip-rule="evenodd" d="M13.2085 13.4291L13.565 16.1942L11.248 14.5886L13.2085 13.4291Z" fill="#EB8F35"/>
<path fill-rule="evenodd" clip-rule="evenodd" d="M11.0704 10.5748L10.8477 14.3657L11.516 12.4257L11.0704 10.5748Z" fill="#EA8E3A"/>
<path fill-rule="evenodd" clip-rule="evenodd" d="M15.2585 13.4737L13.209 13.4291L13.5654 16.1942L15.2585 13.4737Z" fill="#D87C30"/>
<path fill-rule="evenodd" clip-rule="evenodd" d="M17.3527 17.3983L13.5654 16.1942L15.2586 13.4737L18.3329 13.6967L17.3527 17.3983Z" fill="#EB8F35"/>
<path fill-rule="evenodd" clip-rule="evenodd" d="M11.3376 7.0962L13.2536 8.70174L14.7239 10.4857L11.0703 10.6194L11.3376 7.0962Z" fill="#E8821E"/>
<path fill-rule="evenodd" clip-rule="evenodd" d="M12.0507 11.3776L11.5605 12.4034L13.2983 11.9574L12.0507 11.3776Z" fill="#393939"/>
<path fill-rule="evenodd" clip-rule="evenodd" d="M17.3975 2.50264L11.3379 7.09623L12.3627 4.59874L17.3975 2.50264Z" fill="#E88F35"/>
<path fill-rule="evenodd" clip-rule="evenodd" d="M17.3973 2.50264L18.1993 4.95553L17.7538 7.6314L18.0656 7.80982L17.6201 8.21119L17.9765 8.52336L17.4864 8.96936L17.7983 9.23694L17.0854 10.1289L13.7438 9.10315C12.11 7.79494 11.308 7.12594 11.3377 7.09623C11.3674 7.06648 13.3873 5.5353 17.3973 2.50264Z" fill="#8E5A30"/>
</svg>
